<?xml version="1.0" standalone="no"?>
<!DOCTYPE svg PUBLIC "-//W3C//DTD SVG 20010904//EN"
 "http://www.w3.org/TR/2001/REC-SVG-20010904/DTD/svg10.dtd">
<svg version="1.0" xmlns="http://www.w3.org/2000/svg"
 width="512.000000pt" height="512.000000pt" viewBox="0 0 512.000000 512.000000"
 preserveAspectRatio="xMidYMid meet">
<metadata>
Created by potrace 1.14, written by Peter Selinger 2001-2017
</metadata>
<g transform="translate(0.000000,512.000000) scale(0.100000,-0.100000)"
fill="#000000" stroke="none">
<path d="M670 5091 l-30 -29 0 -262 0 -262 29 -29 c28 -28 34 -29 115 -29 l85
0 -40 -72 c-236 -423 -452 -1003 -544 -1463 -57 -282 -69 -400 -69 -685 0
-279 8 -354 64 -569 223 -855 1019 -1532 1965 -1672 178 -26 452 -26 630 0
686 101 1312 490 1677 1042 178 269 282 531 335 848 25 146 24 550 0 736 -54
404 -184 865 -362 1280 -58 134 -179 384 -234 483 l-40 72 85 0 c81 0 87 1
115 29 l29 29 0 262 0 262 -29 29 -29 29 -365 0 c-331 0 -369 -2 -419 -19 -74
-26 -124 -58 -181 -120 -59 -63 -94 -136 -106 -221 -12 -93 1 -163 64 -344
199 -569 327 -1072 392 -1546 25 -189 26 -614 0 -745 -39 -200 -119 -399 -219
-548 -58 -86 -218 -244 -308 -302 -208 -135 -436 -198 -720 -198 -284 0 -512
63 -720 198 -90 58 -250 216 -308 302 -100 149 -180 348 -219 548 -26 131 -25
556 0 745 65 473 197 993 392 1545 31 88 60 187 65 220 10 83 -5 179 -40 251
-40 81 -137 173 -217 206 -57 23 -66 23 -436 26 l-378 3 -29 -30z m356 -1505
c25 -24 34 -43 34 -66 0 -44 -56 -100 -100 -100 -44 0 -100 56 -100 100 0 44
56 100 100 100 23 0 42 -9 66 -34z m3200 0 c25 -24 34 -43 34 -66 0 -23 -9
-41 -34 -66 -24 -24 -43 -34 -66 -34 -23 0 -41 10 -66 34 -24 25 -34 43 -34
66 0 23 10 42 34 66 25 25 43 34 66 34 23 0 42 -9 66 -34z m-3415 -1274 c26
-24 32 -36 32 -72 0 -36 -6 -48 -32 -72 -33 -30 -68 -35 -104 -17 -75 38 -76
137 -2 177 35 19 73 14 106 -16z m3602 17 c96 -49 61 -189 -47 -189 -14 0 -40
13 -57 28 -26 24 -32 36 -32 72 0 36 6 48 32 72 33 30 68 35 104 17z m-3172
-1088 c77 -77 -6 -199 -106 -157 -25 11 -40 26 -51 51 -42 100 80 183 157 106z
m2772 4 c34 -34 40 -67 23 -110 -17 -41 -71 -69 -111 -59 -43 11 -75 52 -75
96 0 85 104 132 163 73z m-1397 -633 c51 -41 57 -97 16 -143 -24 -26 -36 -32
-72 -32 -36 0 -48 6 -72 32 -15 17 -28 43 -28 57 0 57 45 104 100 104 19 0 45
-8 56 -18z"/>
</g>
</svg>
